<svg  viewBox="0 0 733 164" fill="none" xmlns="http://www.w3.org/2000/svg">
<path d="M62.9844 106.004L80.8555 104.441C81.7018 111.603 83.6549 117.495 86.7148 122.117C89.8398 126.674 94.6576 130.385 101.168 133.25C107.678 136.049 115.003 137.449 123.141 137.449C130.367 137.449 136.747 136.375 142.281 134.227C147.815 132.078 151.917 129.148 154.586 125.438C157.32 121.661 158.688 117.56 158.688 113.133C158.688 108.641 157.385 104.734 154.781 101.414C152.177 98.0286 147.88 95.1966 141.891 92.918C138.049 91.4206 129.553 89.1094 116.402 85.9844C103.251 82.7943 94.0391 79.7995 88.7656 77C81.9297 73.4193 76.819 68.9922 73.4336 63.7188C70.1133 58.3802 68.4531 52.4232 68.4531 45.8477C68.4531 38.6211 70.5039 31.8828 74.6055 25.6328C78.707 19.3177 84.6966 14.5326 92.5742 11.2773C100.452 8.02214 109.208 6.39453 118.844 6.39453C129.456 6.39453 138.798 8.11979 146.871 11.5703C155.009 14.9557 161.259 19.9688 165.621 26.6094C169.983 33.25 172.327 40.7695 172.652 49.168L154.488 50.5352C153.512 41.4857 150.191 34.6497 144.527 30.0273C138.928 25.4049 130.628 23.0938 119.625 23.0938C108.167 23.0938 99.8008 25.2096 94.5273 29.4414C89.319 33.6081 86.7148 38.6536 86.7148 44.5781C86.7148 49.7214 88.5703 53.9531 92.2812 57.2734C95.9271 60.5938 105.432 64.0117 120.797 67.5273C136.227 70.9779 146.806 74.0052 152.535 76.6094C160.868 80.4505 167.021 85.3333 170.992 91.2578C174.964 97.1172 176.949 103.888 176.949 111.57C176.949 119.188 174.768 126.382 170.406 133.152C166.044 139.858 159.762 145.099 151.559 148.875C143.421 152.586 134.241 154.441 124.02 154.441C111.064 154.441 100.191 152.553 91.4023 148.777C82.6784 145.001 75.8099 139.337 70.7969 131.785C65.849 124.168 63.2448 115.574 62.9844 106.004Z" fill="black"/>
<path d="M187.105 152L242.086 8.83594H262.496L321.09 152H299.508L282.809 108.641H222.945L207.223 152H187.105ZM228.414 93.2109H276.949L262.008 53.5625C257.451 41.5182 254.065 31.6224 251.852 23.875C250.029 33.0547 247.457 42.1693 244.137 51.2188L228.414 93.2109Z" fill="black"/>
<path d="M336.812 152V8.83594H355.758V67.625H430.172V8.83594H449.117V152H430.172V84.5195H355.758V152H336.812Z" fill="black"/>
<path d="M574.703 8.83594H593.648V91.5508C593.648 105.939 592.021 117.365 588.766 125.828C585.51 134.292 579.618 141.193 571.09 146.531C562.626 151.805 551.493 154.441 537.691 154.441C524.28 154.441 513.31 152.13 504.781 147.508C496.253 142.885 490.165 136.212 486.52 127.488C482.874 118.699 481.051 106.72 481.051 91.5508V8.83594H499.996V91.4531C499.996 103.888 501.135 113.068 503.414 118.992C505.758 124.852 509.729 129.376 515.328 132.566C520.992 135.757 527.893 137.352 536.031 137.352C549.964 137.352 559.892 134.194 565.816 127.879C571.741 121.564 574.703 109.422 574.703 91.4531V8.83594Z" fill="black"/>
<path d="M624.508 152V8.83594H678.219C689.156 8.83594 697.913 10.3008 704.488 13.2305C711.129 16.0951 716.305 20.5547 720.016 26.6094C723.792 32.599 725.68 38.8815 725.68 45.457C725.68 51.5768 724.02 57.3385 720.699 62.7422C717.379 68.1458 712.366 72.5078 705.66 75.8281C714.319 78.3672 720.96 82.6966 725.582 88.8164C730.27 94.9362 732.613 102.163 732.613 110.496C732.613 117.202 731.181 123.452 728.316 129.246C725.517 134.975 722.034 139.402 717.867 142.527C713.701 145.652 708.46 148.029 702.145 149.656C695.895 151.219 688.212 152 679.098 152H624.508ZM643.453 68.9922H674.41C682.809 68.9922 688.831 68.4388 692.477 67.332C697.294 65.8997 700.908 63.5234 703.316 60.2031C705.79 56.8828 707.027 52.7161 707.027 47.7031C707.027 42.9505 705.888 38.7839 703.609 35.2031C701.331 31.5573 698.076 29.0833 693.844 27.7812C689.612 26.4141 682.353 25.7305 672.066 25.7305H643.453V68.9922ZM643.453 135.105H679.098C685.217 135.105 689.514 134.878 691.988 134.422C696.35 133.641 699.996 132.339 702.926 130.516C705.855 128.693 708.264 126.056 710.152 122.605C712.04 119.09 712.984 115.053 712.984 110.496C712.984 105.158 711.617 100.535 708.883 96.6289C706.148 92.6576 702.34 89.8906 697.457 88.3281C692.639 86.7005 685.673 85.8867 676.559 85.8867H643.453V135.105Z" fill="black"/>
<path d="M6.3877 147.133C6.3877 152.374 7.91439 154.994 10.9678 154.994C12.5173 154.994 14.1237 154.197 15.7871 152.602C16.4935 151.918 17.2113 151.189 17.9404 150.414C18.6468 149.639 19.4329 148.91 20.2988 148.227C22.3496 146.632 24.5599 145.845 26.9297 145.868C29.0944 145.868 30.9287 146.62 32.4326 148.124C33.9137 149.605 34.6543 151.428 34.6543 153.593C34.6543 155.712 33.9023 157.501 32.3984 158.959C30.8945 160.44 29.0716 161.181 26.9297 161.181C24.4232 161.181 22.3952 160.167 20.8457 158.139C20.39 157.523 20.0254 156.84 19.752 156.088C18.6126 157.637 17.6214 158.697 16.7783 159.267C15.0921 160.406 13.3262 160.976 11.4805 160.976C9.61198 160.976 8.03972 160.714 6.76368 160.189C5.46485 159.643 4.34831 158.822 3.41407 157.729C1.43164 155.382 0.440434 151.85 0.440433 147.133C0.46322 139.522 3.04948 134.395 8.19922 131.752C10.0221 130.84 11.9818 130.385 14.0781 130.385C16.1745 130.362 17.9746 130.521 19.4785 130.863C20.9596 131.205 22.3952 131.661 23.7852 132.23C25.1523 132.8 26.474 133.45 27.75 134.179L31.4756 136.4L33.6289 134.281L30.1768 129.325H14.1123C10.1475 129.302 6.85482 127.924 4.23438 125.189C1.70508 122.546 0.440432 119.288 0.440432 115.414H6.35352C6.35352 118.285 7.35612 120.404 9.36133 121.771C11.0931 122.956 13.4287 123.537 16.3682 123.515H40.3965C43.1081 123.537 45.6374 122.045 47.9844 119.037C48.6908 118.126 49.3971 117.146 50.1035 116.098L55.0254 119.516C52.8607 122.706 51.0378 124.87 49.5566 126.01C46.7083 128.22 43.7119 129.325 40.5674 129.325H37.0469L41.0117 134.726L36.2607 139.921C41.8434 144.364 46.8906 149.252 51.4023 154.584C52.8151 156.27 54.0228 157.842 55.0254 159.301L50.958 163.676C45.7855 156.475 40.1003 150.3 33.9023 145.15C26.6563 139.135 20.333 136.127 14.9326 136.127C10.9906 136.127 8.35873 138.201 7.03711 142.348C6.58138 143.715 6.36491 145.31 6.3877 147.133ZM25.1523 153.559C25.1523 154.06 25.3346 154.493 25.6992 154.857C26.0638 155.199 26.5081 155.37 27.0322 155.37C27.5335 155.37 27.9665 155.199 28.3311 154.857C28.6729 154.493 28.8438 154.06 28.8438 153.559C28.8438 153.035 28.6729 152.59 28.3311 152.226C27.9665 151.861 27.5335 151.679 27.0322 151.679C26.5081 151.679 26.0638 151.861 25.6992 152.226C25.3346 152.59 25.1523 153.035 25.1523 153.559Z" fill="#1C75D0"/>
<path d="M44.874 91.3174C45.3753 91.2262 46.002 91.1807 46.7539 91.1807C47.5059 91.1807 48.3604 91.3857 49.3174 91.7959C50.2516 92.1833 51.0605 92.7188 51.7441 93.4023C53.248 94.9062 54 96.7406 54 98.9053C54 101.024 53.248 102.813 51.7441 104.271C50.2402 105.753 48.4173 106.493 46.2754 106.493C42.4245 106.425 39.8154 104.636 38.4482 101.127C37.9697 99.8965 37.7305 98.4609 37.7305 96.8203C37.7305 95.1569 37.9469 93.6644 38.3799 92.3428C32.6605 89.3577 26.9297 87.8652 21.1875 87.8652C16.9036 87.8652 13.349 88.8337 10.5234 90.7705C7.76628 92.6618 6.3877 94.9062 6.3877 97.5039C6.3877 99.3952 6.82064 100.819 7.68653 101.776C8.52962 102.711 9.53223 103.178 10.6943 103.178C11.8564 103.178 12.8249 102.95 13.5996 102.494C14.3516 102.038 15.0807 101.48 15.7871 100.819C16.4935 100.136 17.2113 99.4066 17.9404 98.6318C18.6468 97.8343 19.4329 97.0938 20.2988 96.4102C22.3496 94.8151 24.5599 94.029 26.9297 94.0518C29.0944 94.0518 30.9287 94.8037 32.4326 96.3076C33.9137 97.7887 34.6543 99.6117 34.6543 101.776C34.6543 103.896 33.9023 105.684 32.3984 107.143C30.8945 108.624 29.0716 109.364 26.9297 109.364C24.4232 109.364 22.3952 108.35 20.8457 106.322C20.39 105.707 20.0254 105.023 19.752 104.271C18.6126 105.821 17.6214 106.881 16.7783 107.45C15.0921 108.59 13.3262 109.159 11.4805 109.159C9.61198 109.159 8.03972 108.909 6.76367 108.407C5.46485 107.883 4.34831 107.143 3.41406 106.186C1.43164 104.135 0.440431 101.241 0.440431 97.5039C0.440431 95.5215 0.953126 93.596 1.97852 91.7275C2.98112 89.859 4.39388 88.1956 6.2168 86.7373C10.2956 83.5016 15.2858 81.8838 21.1875 81.8838C27.7272 81.8838 34.5062 83.7181 41.5244 87.3867C42.2764 86.4753 43.0397 85.6322 43.8145 84.8574C44.5436 84.0827 45.2272 83.2624 45.8652 82.3965C47.278 80.4596 47.9958 78.5228 48.0186 76.5859C48.0186 74.6263 47.7109 73.0996 47.0957 72.0059C46.5033 70.9121 45.7285 70.0234 44.7715 69.3398C42.8574 67.9727 40.5104 67.2891 37.7305 67.2891C34.3809 67.2891 31.0996 67.9954 27.8867 69.4082L22.2471 71.9375C18.7835 73.4414 15.3428 74.182 11.9248 74.1592C8.11947 74.1592 5.21419 72.8945 3.20898 70.3652C1.3405 68.0182 0.394857 64.9421 0.37207 61.1367H6.35352C6.35352 64.4635 7.34473 66.6396 9.32715 67.665C10.0335 68.0296 10.8994 68.2119 11.9248 68.2119C12.9502 68.2119 13.93 68.1322 14.8643 67.9727C15.7757 67.7904 16.6758 67.5625 17.5645 67.2891C18.4303 66.9928 19.2734 66.6624 20.0938 66.2979L25.6992 63.7686C29.459 62.1507 33.4694 61.3418 37.7305 61.3418C42.3105 61.3418 46.0703 62.5039 49.0098 64.8281C52.3366 67.4486 54 71.083 54 75.7314C54 79.8102 52.9746 83.0345 50.9238 85.4043C49.8757 86.6348 48.7705 87.7513 47.6084 88.7539C46.4463 89.7565 45.5348 90.611 44.874 91.3174ZM44.498 98.8711C44.498 99.3724 44.6803 99.8053 45.0449 100.17C45.4095 100.512 45.8538 100.683 46.3779 100.683C46.8792 100.683 47.3122 100.512 47.6768 100.17C48.0186 99.8053 48.1895 99.3724 48.1895 98.8711C48.1895 98.347 48.0186 97.9027 47.6768 97.5381C47.3122 97.1735 46.8792 96.9912 46.3779 96.9912C45.8538 96.9912 45.4095 97.1735 45.0449 97.5381C44.6803 97.9027 44.498 98.347 44.498 98.8711ZM25.1523 101.742C25.1523 102.243 25.3346 102.676 25.6992 103.041C26.0638 103.383 26.5081 103.554 27.0322 103.554C27.5335 103.554 27.9665 103.383 28.3311 103.041C28.6729 102.676 28.8438 102.243 28.8438 101.742C28.8438 101.218 28.6729 100.774 28.3311 100.409C27.9665 100.045 27.5335 99.8623 27.0322 99.8623C26.5081 99.8623 26.0638 100.045 25.6992 100.409C25.3346 100.774 25.1523 101.218 25.1523 101.742Z" fill="#1C75D0"/>
<path d="M33.5264 50.3018C43.1878 43.3291 48.0186 35.2741 48.0186 26.1367C48.0186 20.3945 46.6741 15.6777 43.9853 11.9863C41.3649 8.38607 38.0837 6.58594 34.1416 6.58594C31.43 6.58594 29.3678 7.22396 27.9551 8.5C26.793 9.54818 26.2119 10.7331 26.2119 12.0547C26.2119 13.3535 26.4512 14.5156 26.9297 15.541C27.3854 16.5664 27.9665 17.5804 28.6728 18.583C29.3564 19.5628 30.1084 20.5768 30.9287 21.625C31.7718 22.7188 32.5352 23.9036 33.2188 25.1797C34.8594 28.1875 35.6797 31.1839 35.6797 34.1689C35.6569 37.1312 35.2809 39.7288 34.5518 41.9619C33.8226 44.1722 32.7061 46.1204 31.2021 47.8066C27.8981 51.5208 23.2839 53.3779 17.3594 53.3779C12.8477 53.3551 9.01953 51.9082 5.875 49.0371C2.22917 45.7103 0.406249 40.9137 0.406249 34.6475C0.406249 30.5459 1.52278 26.8203 3.75586 23.4707C4.39388 22.5365 5.05469 21.6478 5.73828 20.8047L7.68652 18.3779C8.32454 17.6032 8.8942 16.8171 9.39551 16.0195C5.45345 16.0195 2.79883 14.6637 1.43164 11.9521C0.975909 11.0407 0.748045 10.0153 0.748045 8.87598C0.748045 7.73666 0.953123 6.69987 1.36328 5.76563C1.77343 4.8086 2.32031 3.98828 3.0039 3.30469C4.50781 1.80078 6.13704 1.06022 7.8916 1.08301C9.64616 1.08301 11.0247 1.34505 12.0273 1.86914C13.0299 2.37044 13.8617 3.06543 14.5225 3.9541C15.7985 5.66309 16.4365 8.02149 16.4365 11.0293C16.4365 14.5384 14.7617 18.4919 11.4121 22.8897C9.38411 25.5557 8.03971 27.7773 7.3789 29.5547C6.7181 31.332 6.38769 33.2005 6.38769 35.1602C6.38769 37.097 6.7067 38.8743 7.34473 40.4922C7.95996 42.0872 8.79167 43.3975 9.83984 44.4229C11.8451 46.4053 14.3402 47.3965 17.3252 47.3965C21.3356 47.3965 24.4574 46.1432 26.6904 43.6367C28.6956 41.3809 29.6982 38.5098 29.6982 35.0234C29.6982 32.2435 28.8779 29.5091 27.2373 26.8203C26.5309 25.681 25.779 24.5872 24.9814 23.5391C24.1611 22.4681 23.3978 21.363 22.6914 20.2236C21.0508 17.5804 20.2305 14.8916 20.2305 12.1572C20.2305 9.24056 21.2331 6.72266 23.2383 4.60352C25.7448 1.96029 29.345 0.638672 34.0391 0.638672C36.7962 0.638672 39.3939 1.25391 41.832 2.48437C44.2474 3.71484 46.3551 5.44661 48.1553 7.67969C52.0518 12.5332 54 18.6855 54 26.1367C54 34.4993 50.8441 42.0075 44.5322 48.6611C42.4814 50.8258 39.9977 52.9564 37.0811 55.0527L33.5264 50.3018ZM6.49023 8.77344C6.49023 9.27474 6.67252 9.70768 7.03711 10.0723C7.40169 10.4141 7.84603 10.585 8.37011 10.585C8.87142 10.585 9.30436 10.4141 9.66894 10.0723C10.0107 9.70768 10.1816 9.27474 10.1816 8.77344C10.1816 8.24935 10.0107 7.80501 9.66894 7.44043C9.30436 7.07585 8.87142 6.89356 8.37011 6.89356C7.84603 6.89356 7.40169 7.07585 7.03711 7.44043C6.67252 7.80501 6.49023 8.24935 6.49023 8.77344Z" fill="#1C75D0"/>
</svg>
