<svg viewBox="0 0 32 31" fill="none" xmlns="http://www.w3.org/2000/svg">
<path d="M16 0C7.16 0 0 7.11633 0 15.8935C0 22.9172 4.584 28.8733 10.94 30.9725C11.74 31.1222 12.0333 30.6308 12.0333 30.2083C12.0333 29.8309 12.02 28.8309 12.0133 27.5064C7.56267 28.4653 6.624 25.374 6.624 25.374C5.896 23.5397 4.844 23.0496 4.844 23.0496C3.39467 22.0642 4.956 22.0841 4.956 22.0841C6.56267 22.1953 7.40667 23.7211 7.40667 23.7211C8.83333 26.1515 11.152 25.4495 12.0667 25.0429C12.2107 24.0151 12.6227 23.3145 13.08 22.9172C9.52667 22.5198 5.792 21.153 5.792 15.0631C5.792 13.3281 6.412 11.9109 7.43867 10.7983C7.25867 10.397 6.71867 8.78118 7.57867 6.59185C7.57867 6.59185 8.91867 6.16537 11.9787 8.22093C13.2587 7.8673 14.6187 7.69247 15.9787 7.68453C17.3387 7.69247 18.6987 7.8673 19.9787 8.22093C23.0187 6.16537 24.3587 6.59185 24.3587 6.59185C25.2187 8.78118 24.6787 10.397 24.5187 10.7983C25.5387 11.9109 26.1587 13.3281 26.1587 15.0631C26.1587 21.1689 22.4187 22.5132 18.8587 22.9039C19.4187 23.3807 19.9387 24.3555 19.9387 25.8442C19.9387 27.9713 19.9187 29.6799 19.9187 30.1964C19.9187 30.6136 20.1987 31.1103 21.0187 30.9513C27.42 28.8666 32 22.9066 32 15.8935C32 7.11633 24.836 0 16 0Z"/>
</svg>
